<svg xmlns="http://www.w3.org/2000/svg" width="61.313" height="58.781" viewBox="0 0 61.313 58.781">
  <metadata><?xpacket begin="﻿" id="W5M0MpCehiHzreSzNTczkc9d"?>
<x:xmpmeta xmlns:x="adobe:ns:meta/" x:xmptk="Adobe XMP Core 5.6-c138 79.159824, 2016/09/14-01:09:01        ">
   <rdf:RDF xmlns:rdf="http://www.w3.org/1999/02/22-rdf-syntax-ns#">
      <rdf:Description rdf:about=""/>
   </rdf:RDF>
</x:xmpmeta>
                                                                                                    
                                                                                                    
                                                                                                    
                                                                                                    
                                                                                                    
                                                                                                    
                                                                                                    
                                                                                                    
                                                                                                    
                                                                                                    
                                                                                                    
                                                                                                    
                                                                                                    
                                                                                                    
                                                                                                    
                                                                                                    
                                                                                                    
                                                                                                    
                                                                                                    
                                                                                                    
                           
<?xpacket end="w"?></metadata>
<defs>
    <style>
      .cls-1 {
        fill: #00a2ff;
        fill-rule: evenodd;
      }
    </style>
  </defs>
  <path id="_" data-name="" class="cls-1" d="M61.586,28.656a5.762,5.762,0,0,1-.281,1.828,5.031,5.031,0,0,1-.844,1.547A4.754,4.754,0,0,1,59.2,33.156a7.768,7.768,0,0,1-1.547.7,8.754,8.754,0,0,1,.7,1.477,5.149,5.149,0,0,1,.281,1.758,5.328,5.328,0,0,1-.281,1.688,7.835,7.835,0,0,1-.7,1.547,9.421,9.421,0,0,1-1.266,1.055,6.932,6.932,0,0,1-1.406.774,7.9,7.9,0,0,1,.7,1.547,5.332,5.332,0,0,1,.281,1.688,5.134,5.134,0,0,1-.281,1.758,8.609,8.609,0,0,1-.7,1.476,6.07,6.07,0,0,1-1.266,1.2,3.7,3.7,0,0,1-1.547.633,5.332,5.332,0,0,1,.844,1.476,5.149,5.149,0,0,1,.281,1.758,4.955,4.955,0,0,1-.422,1.969,5.314,5.314,0,0,1-1.125,1.688,7.377,7.377,0,0,1-1.828,1.125,5.3,5.3,0,0,1-2.109.422H29.242a10.4,10.4,0,0,1-2.25-.281,17.139,17.139,0,0,1-2.672-.844,22.728,22.728,0,0,1-2.812-1.055q-1.407-.633-2.813-1.2-1.687-.7-3.3-1.406a6.935,6.935,0,0,0-2.32-.7H0.273V25.984L1.4,25.844H12.367a8.92,8.92,0,0,0,2.32-.281,6.46,6.46,0,0,0,2.18-1.125,22.721,22.721,0,0,0,2.883-1.969q1.615-1.266,3.867-3.094a14.173,14.173,0,0,0,5.133-9.141q0.771-5.484.773-6.328a3.334,3.334,0,0,1,.422-1.617,3.077,3.077,0,0,1,1.125-1.2A4.087,4.087,0,0,1,32.547.32,5.589,5.589,0,0,1,34.023.109a9.292,9.292,0,0,1,2.25.281,4.587,4.587,0,0,1,2.109,1.266,6.786,6.786,0,0,1,1.547,2.6,13.432,13.432,0,0,1,.563,4.289,28.836,28.836,0,0,1-.352,4.57,36.257,36.257,0,0,1-.914,4.148,23.066,23.066,0,0,1-1.055,3.586q-0.633,1.618-1.055,2.742H56.242a6.11,6.11,0,0,1,2.18.352A6.3,6.3,0,0,1,60.18,25a4.641,4.641,0,0,1,1.055,1.617,5.682,5.682,0,0,1,.352,2.039h0Zm-5.344,2.953a3.593,3.593,0,0,0,1.266-.211,1.7,1.7,0,0,0,.844-0.633,4.34,4.34,0,0,0,.7-0.914,2.376,2.376,0,0,0,.281-1.2,2.7,2.7,0,0,0-.844-1.969,3.043,3.043,0,0,0-2.25-.844H33.32l0.844-1.687Q38.1,14.453,38.1,8.547q0-4.641-1.547-5.414a6.069,6.069,0,0,0-2.531-.773,3.237,3.237,0,0,0-1.266.422,1.268,1.268,0,0,0-.844,1.125q0,0.844-.141,2.813a23.364,23.364,0,0,1-.844,4.5,29.189,29.189,0,0,1-2.039,5.2,14.2,14.2,0,0,1-3.726,4.64q-2.393,1.971-4.008,3.3a25.114,25.114,0,0,1-3.023,2.18,12.443,12.443,0,0,1-2.812,1.266,10.228,10.228,0,0,1-2.953.422h-9.7V51.016H13.07a7.618,7.618,0,0,1,2.6.633q1.615,0.633,4.008,1.617,1.124,0.564,2.461,1.2a23.18,23.18,0,0,0,2.6,1.055q1.4,0.422,2.531.774a6.706,6.706,0,0,0,1.969.352H47.8a2.777,2.777,0,0,0,1.266-.281,3.766,3.766,0,0,0,.984-0.7,1.681,1.681,0,0,0,.633-0.844,3.173,3.173,0,0,0,.211-1.125,3.036,3.036,0,0,0-.211-1.2,2.929,2.929,0,0,0-.633-0.914,2.748,2.748,0,0,0-.984-0.633,3.586,3.586,0,0,0-1.266-.211H47.523V48.344h3.234a3.2,3.2,0,0,0,1.125-.211,2.747,2.747,0,0,0,.984-0.633,9.489,9.489,0,0,0,.563-0.984,2.391,2.391,0,0,0,0-2.25,9.714,9.714,0,0,0-.562-0.984,9.7,9.7,0,0,0-.984-0.563,2.515,2.515,0,0,0-1.125-.281H49.773v-2.39h3.516a3.2,3.2,0,0,0,1.125-.211A2.743,2.743,0,0,0,55.4,39.2a3.775,3.775,0,0,0,.7-0.984,2.5,2.5,0,0,0,.281-1.125,2.8,2.8,0,0,0-.281-1.266,2.156,2.156,0,0,0-.7-0.844,3.813,3.813,0,0,0-.984-0.7A2.515,2.515,0,0,0,53.289,34H52.164v-2.39h4.078Z" transform="translate(-0.281 -0.094)"/>
</svg>
