<svg xmlns="http://www.w3.org/2000/svg" width="56.531" height="56.531" viewBox="0 0 56.531 56.531">
  <metadata><?xpacket begin="﻿" id="W5M0MpCehiHzreSzNTczkc9d"?>
<x:xmpmeta xmlns:x="adobe:ns:meta/" x:xmptk="Adobe XMP Core 5.6-c138 79.159824, 2016/09/14-01:09:01        ">
   <rdf:RDF xmlns:rdf="http://www.w3.org/1999/02/22-rdf-syntax-ns#">
      <rdf:Description rdf:about=""/>
   </rdf:RDF>
</x:xmpmeta>
                                                                                                    
                                                                                                    
                                                                                                    
                                                                                                    
                                                                                                    
                                                                                                    
                                                                                                    
                                                                                                    
                                                                                                    
                                                                                                    
                                                                                                    
                                                                                                    
                                                                                                    
                                                                                                    
                                                                                                    
                                                                                                    
                                                                                                    
                                                                                                    
                                                                                                    
                                                                                                    
                           
<?xpacket end="w"?></metadata>
<defs>
    <style>
      .cls-1 {
        fill: #5474fd;
        fill-rule: evenodd;
      }
    </style>
  </defs>
  <path id="_" data-name="" class="cls-1" d="M57.266,53.812l-2.953,2.953L38,40.453a18.615,18.615,0,0,1-3.094,2.25,24.161,24.161,0,0,1-3.516,1.688,20.23,20.23,0,0,1-3.867,1.055,23.511,23.511,0,0,1-4.008.352,21.872,21.872,0,0,1-8.93-1.828,23.517,23.517,0,0,1-7.242-4.922A22.551,22.551,0,0,1,2.492,31.8,22.264,22.264,0,0,1,.734,23.016,22.591,22.591,0,0,1,23.516.234,22.313,22.313,0,0,1,32.3,1.992a22.673,22.673,0,0,1,7.242,4.852,23.649,23.649,0,0,1,4.922,7.242,21.926,21.926,0,0,1,1.828,8.93,23.7,23.7,0,0,1-.351,4.008,20.475,20.475,0,0,1-1.055,3.867A24.491,24.491,0,0,1,43.2,34.406a18.664,18.664,0,0,1-2.25,3.094L57.266,53.812h0ZM3.125,23.016A19.963,19.963,0,0,0,9.031,37.359a20.88,20.88,0,0,0,6.539,4.43,19.723,19.723,0,0,0,7.945,1.617,19.241,19.241,0,0,0,7.875-1.617,21.315,21.315,0,0,0,10.9-10.9,19.268,19.268,0,0,0,1.617-7.875,19.769,19.769,0,0,0-1.617-7.945,21.009,21.009,0,0,0-4.43-6.539,20.252,20.252,0,0,0-6.469-4.36,20.019,20.019,0,0,0-7.875-1.547A20.524,20.524,0,0,0,15.57,4.172a20.038,20.038,0,0,0-10.9,10.9,20.494,20.494,0,0,0-1.547,7.945h0Z" transform="translate(-0.719 -0.219)"/>
</svg>
